PathFileType	4	(X/Y/Z)	./resultDataOpenSim/trcMotMarkerGrf/sub09/qtm-14-03.trc
DataRate	CameraRate	NumFrames	NumMarkers	Units	OrigDataRate	OrigDataStartFrame	OrigNumFrames
250.000000	250.000000	7	24	m	250.000000	122	486
Frame#	Time	L.Toe.Tip			R.Toe.Tip			L.Ankle.Lat			R.Ankle.Lat			L.Ankle.Med			R.Ankle.Med			L.Heel			R.Heel			L.Knee.Lat			R.Knee.Lat			L.Knee.Med			R.Knee.Med			L.Thigh.Upper			R.Thigh.Upper			L.ASIS			R.ASIS			V.Sacral			L.Acromium			R.Acromium			C7			L.Elbow			R.Elbow			L.Wrist.Lat			R.Wrist.Lat
		X1	Y1	Z1	X2	Y2	Z2	X3	Y3	Z3	X4	Y4	Z4	X5	Y5	Z5	X6	Y6	Z6	X7	Y7	Z7	X8	Y8	Z8	X9	Y9	Z9	X10	Y10	Z10	X11	Y11	Z11	X12	Y12	Z12	X13	Y13	Z13	X14	Y14	Z14	X15	Y15	Z15	X16	Y16	Z16	X17	Y17	Z17	X18	Y18	Z18	X19	Y19	Z19	X20	Y20	Z20	X21	Y21	Z21	X22	Y22	Z22	X23	Y23	Z23	X24	Y24	Z24

122	0.484	-0.14409146	0.093723774	0.01900829	-0.6044161	0.038319726	0.14299876	-0.29636753	0.090079138	-0.014683031	-0.75233522	0.057456936	0.16853337	-0.27702739	0.11377063	0.079980841	-0.73673144	0.093480719	0.076968927	-0.35107152	0.03569667	0.036187102	-0.81989118	0.03791753	0.11611585	-0.36079039	0.5044636	-0.049298962	-0.60649237	0.49566268	0.22970737	-0.36167786	0.50010367	0.075717278	-0.62194105	0.48613373	0.1014247	-0.54101778	0.88623684	-0.090445475	-0.57426676	0.899106	0.27909487	-0.47211008	0.97574536	-0.027796608	-0.47099892	0.98102906	0.21256078	-0.63634055	1.0308226	0.091110761	-0.48006612	1.4253494	-0.081663134	-0.4906564	1.4423904	0.24679243	-0.54836043	1.484749	0.084151184	-0.65448561	1.1013217	-0.12367663	-0.61351637	1.0958603	0.35227082	-0.56335844	0.85844253	-0.17195944	-0.39574418	0.91962473	0.33847852
123	0.488	-0.12617696	0.098128086	0.019641374	-0.60438861	0.03831797	0.14312339	-0.27851776	0.090360549	-0.014621048	-0.75230001	0.057739591	0.16831669	-0.25986273	0.11490891	0.080042783	-0.7364727	0.093531226	0.076752965	-0.33168846	0.03467279	0.036352919	-0.81985856	0.038123027	0.11577057	-0.3546575	0.50272683	-0.049746795	-0.6047964	0.49520113	0.22977447	-0.3558973	0.49802572	0.075415781	-0.62001338	0.48580902	0.10157647	-0.53442884	0.88471487	-0.090289166	-0.56851668	0.89815623	0.27891705	-0.46546472	0.97429802	-0.027479185	-0.46502987	0.97979812	0.21290673	-0.63001796	1.0294167	0.090923592	-0.47412611	1.4239863	-0.081882681	-0.48474532	1.4412305	0.24661956	-0.54246031	1.4835257	0.083947455	-0.64901031	1.1003325	-0.12384239	-0.60697015	1.0944964	0.35269483	-0.55921519	0.85715247	-0.17259323	-0.38821498	0.91948289	0.33832241
124	0.492	-0.1087143	0.10261762	0.020239208	-0.60435588	0.038377189	0.14327099	-0.26099152	0.090906272	-0.014614101	-0.75222675	0.058207537	0.16811844	-0.24302035	0.11633579	0.08013664	-0.73620107	0.09359677	0.076551098	-0.31264032	0.033964288	0.036450974	-0.81982137	0.038353126	0.1153779	-0.34848407	0.50098371	-0.05016052	-0.60299245	0.49468237	0.22982389	-0.35001887	0.49584489	0.075210081	-0.61802876	0.48550183	0.10168392	-0.52779019	0.88311691	-0.090114338	-0.56274869	0.89714806	0.27872112	-0.45880794	0.97279548	-0.02715395	-0.45888043	0.97856949	0.21323739	-0.62398262	1.0281337	0.090233474	-0.46817518	1.4225581	-0.082108507	-0.47881671	1.440007	0.24644808	-0.53650851	1.4822162	0.083717432	-0.64351422	1.0992676	-0.12400867	-0.60040714	1.0930549	0.35308862	-0.55497961	0.85581341	-0.17323092	-0.38071919	0.91924475	0.33816491
125	0.496	-0.091693998	0.10715263	0.02080883	-0.60433485	0.038435079	0.14338887	-0.24377579	0.091692721	-0.014662505	-0.75212939	0.058745216	0.1679224	-0.22655178	0.1179597	0.080191273	-0.73592079	0.09368027	0.076369069	-0.29393856	0.033540932	0.036342456	-0.81978726	0.03860939	0.11496532	-0.34227797	0.49923068	-0.050502441	-0.60100113	0.49412521	0.22989268	-0.34382772	0.49360779	0.075192359	-0.61591506	0.48519011	0.10175876	-0.52113001	0.88143173	-0.089921606	-0.556955	0.89606094	0.27851891	-0.45213691	0.97123952	-0.026829709	-0.45261102	0.97731396	0.21354397	-0.61834754	1.0270534	0.088848419	-0.46221034	1.4210641	-0.082351294	-0.47288863	1.4387167	0.24628098	-0.53053611	1.480838	0.083484893	-0.63802219	1.0981362	-0.12414633	-0.59382805	1.0915366	0.35344784	-0.55063173	0.85440011	-0.1738463	-0.37325018	0.91890781	0.3380065
126	0.5	-0.075116784	0.11170623	0.021385047	-0.60433969	0.038415703	0.14343633	-0.22689529	0.092697418	-0.014767949	-0.75205849	0.059182117	0.16772322	-0.21048894	0.11968543	0.080119163	-0.7356311	0.093781466	0.07620242	-0.27560522	0.033351273	0.035973336	-0.81975689	0.038893844	0.11456816	-0.33603219	0.49747647	-0.050736663	-0.59890965	0.49353254	0.22997766	-0.33720469	0.49135954	0.075410269	-0.61364545	0.48482236	0.10183419	-0.51446445	0.87966261	-0.089711798	-0.5511357	0.8948902	0.27831278	-0.44545527	0.96963397	-0.026518531	-0.44627352	0.97600825	0.2138257	-0.61288844	1.0260334	0.087145923	-0.45622243	1.4195055	-0.082614772	-0.46696341	1.4373589	0.2461207	-0.52458475	1.4794138	0.083274163	-0.63252445	1.0969387	-0.12426179	-0.58723957	1.0899472	0.35376829	-0.54618745	0.85288801	-0.17442374	-0.3658056	0.91847306	0.33784927
127	0.504	-0.059021253	0.11625302	0.021979065	-0.60436596	0.038313346	0.14343473	-0.21041051	0.093894634	-0.014938154	-0.75204883	0.059466415	0.16753372	-0.19484665	0.12146014	0.079903412	-0.73532487	0.093900533	0.076043111	-0.25770097	0.033342484	0.035412357	-0.81972071	0.039213296	0.11420595	-0.32961307	0.49575365	-0.050869625	-0.59683186	0.49290824	0.23008497	-0.33033533	0.48913356	0.0757654	-0.6111688	0.48437044	0.10193841	-0.50779153	0.87782231	-0.089493789	-0.54529538	0.8936494	0.2780936	-0.43877591	0.96798725	-0.026230758	-0.43990039	0.97464521	0.21408637	-0.60717886	1.0247778	0.08585222	-0.45020737	1.4178882	-0.082893436	-0.46102864	1.4359373	0.24595858	-0.51866665	1.4779474	0.083077255	-0.62693434	1.0956594	-0.12444423	-0.58064826	1.0882941	0.35404529	-0.54169069	0.85128601	-0.17497899	-0.35838858	0.91794702	0.33769645
128	0.508	-0.043457917	0.12076162	0.022597311	-0.60439453	0.038191436	0.14343703	-0.19437074	0.095248917	-0.015167633	-0.75208386	0.059668835	0.16736549	-0.17966358	0.1232524	0.079626818	-0.73499619	0.094040241	0.07588863	-0.24032019	0.033493083	0.034719285	-0.81966855	0.039575698	0.11387369	-0.32284891	0.49409037	-0.05093955	-0.59474733	0.49226362	0.23023702	-0.32359539	0.48694538	0.076069752	-0.60838239	0.48385854	0.10208847	-0.50110665	0.87592048	-0.089279153	-0.53943393	0.8923513	0.27786053	-0.43211583	0.96630985	-0.025972058	-0.43350879	0.9732243	0.21432721	-0.60102771	1.0231561	0.085287497	-0.44416922	1.4162162	-0.08318056	-0.45507124	1.434456	0.24577908	-0.51272646	1.476421	0.082835618	-0.62114817	1.0942793	-0.12480327	-0.57405207	1.0865804	0.354274	-0.53716344	0.84962152	-0.17553138	-0.35100265	0.9173347	0.33754727
